<?xml version="1.0" encoding="utf-8"?>
<!-- Generator: Adobe Illustrator 27.0.0, SVG Export Plug-In . SVG Version: 6.00 Build 0)  -->
<svg version="1.1" xmlns="http://www.w3.org/2000/svg" xmlns:xlink="http://www.w3.org/1999/xlink" x="0px" y="0px"
	 viewBox="0 0 500 500" style="enable-background:new 0 0 500 500;" xml:space="preserve">
<style type="text/css">
	.st0{fill-rule:evenodd;clip-rule:evenodd;fill:#DC9118;}
	.st1{fill-rule:evenodd;clip-rule:evenodd;fill:#000005;}
	.st2{fill-rule:evenodd;clip-rule:evenodd;fill:#FFFFFF;}
	.st3{fill-rule:evenodd;clip-rule:evenodd;fill:#EDCBAA;}
	.st4{fill-rule:evenodd;clip-rule:evenodd;fill:#AFB0B0;}
	.st5{fill-rule:evenodd;clip-rule:evenodd;fill:#C4C4C4;}
	.st6{fill-rule:evenodd;clip-rule:evenodd;fill:#D98B58;}
	.st7{fill-rule:evenodd;clip-rule:evenodd;fill:#C10016;}
	.st8{fill-rule:evenodd;clip-rule:evenodd;fill:#000006;}
	.st9{fill-rule:evenodd;clip-rule:evenodd;fill:#000508;}
	.st10{fill-rule:evenodd;clip-rule:evenodd;fill:#020307;}
	.st11{fill-rule:evenodd;clip-rule:evenodd;fill:#121212;}
	.st12{fill-rule:evenodd;clip-rule:evenodd;fill:#171717;}
	.st13{fill-rule:evenodd;clip-rule:evenodd;fill:#000004;}
	.st14{fill-rule:evenodd;clip-rule:evenodd;fill:#000003;}
	.st15{fill-rule:evenodd;clip-rule:evenodd;fill:#242626;}
	.st16{fill-rule:evenodd;clip-rule:evenodd;fill:#20201E;}
	.st17{fill-rule:evenodd;clip-rule:evenodd;fill:#911B19;}
</style>
<g id="BACKGROUND">
</g>
<g id="OBJECTS">
	<g>
		
			<ellipse transform="matrix(0.7071 -0.7071 0.7071 0.7071 -116.8192 277.9561)" class="st0" cx="277.1" cy="280" rx="118.6" ry="118.6"/>
		<g>
			<g>
				<g>
					<path class="st1" d="M248.9,155.3c-3.9-2.7-7.6-5.6-10.6-9.2c-4.8-5.7-7.6-12-7.1-19.6c0.7-10.9,10.6-20.7,21.2-20.3
						c3.2,0.1,4.8-0.7,6.6-3.1c4.6-5.8,11.1-8.8,18.2-10.5c10.2-2.5,20.2-2.2,29.9,2.2c7,3.2,12,8.3,14.7,15.5c0.4,1,0.6,1.4,1.9,1
						c13.2-4.1,27.6,4.7,30.2,18.4c1.1,5.8,0.3,11.4-2.2,16.6c-0.7,1.4-0.7,2.1,0.8,3.2c3.7,3,5.6,7.1,6,11.9
						c0.6,8.1-1.8,15-8.3,20.1c-6,4.7-12.7,4.4-19.4,1.8c-1.2-0.4-2.3-1.1-3.4-1.6c-0.4-0.2-0.8-0.8-1.2-0.1
						c-0.5,0.8-1.2,1.5-1.4,2.5c0,0.1,0.5,0.3,0.7,0.4c5.9,1.3,8.9,7.9,6.4,14.3c-1.5,3.9-4.4,6.7-7.9,8.8c-2.2,1.3-4.6,2.3-7.1,3.1
						c-1.5,0.4-2.9,0.8-4.4,0.3c-0.9-0.3-1.3-0.1-1.4,0.9c-0.3,2.3-0.7,4.5-1.1,6.8c-0.2,0.8,0.1,1.1,0.9,1.4
						c2.1,0.6,4.1,1.3,6.2,1.9c1.4,0.4,2,1.2,2.3,2.6c0.6,3.7,1.4,7.4,2,11.1c0.2,1,0.6,1.4,1.5,1.6c10.7,3,21.3,6,32,8.9
						c2.3,0.6,3.8,1.8,4.9,3.8c1.8,3.5,3.2,7.2,4.6,10.9c3.2,8.4,5.9,17,10.1,25c0.8,1.5,1.7,3,2.7,4.5c0.7,1,1.5,2,2.8,2.5
						c4.3,1.9,7,4.9,6.7,9.8c-0.3,5.2,1.3,9.9,3.5,14.4c1.2,2.5,2,5.1,3,7.7c3.4,8.3,1.8,16.3-2.2,23.9
						c-4.3,8.1-11.1,13.8-18.8,18.4c-6.6,4-13.7,7-21,9.3c-1.3,0.4-2.1,1-2.2,2.4c0,0.1,0,0.2-0.1,0.4c-2,7.1-2,7.2-9.2,8.8
						c-4.4,1-8.9,2.2-13.3,3.1c-5,1.1-0.2,15.4-2.2,17.8c-0.3,0.4-2.7-10.9-3.3-10.7c-12.6,4.5-25.3,9.3-39.3,9.3
						c-20.7,0-40.2-5.3-57.3-14.5c-0.4-0.2-0.7,3.4-1.1,3.1c-0.3-0.2-0.9-4.2-1.2-4.4c-5.2-3-10.2-6.4-14.9-10.1
						c-0.8-0.6-3.9,7.7-4.6,7c1.2-11.8,4-22.5,5.7-34.1c0.3-2.2,0.2-4.4-0.2-6.4c-1.2-5.9-0.2-11.7,1-17.5c0.3-1.8,0.6-3.5,1.1-5.7
						c-2.9,3.1-5.4,6-8.1,8.7c-7.5,7.4-16.1,13.2-25.7,17.6c-4.5,2.1-8.6,1.5-12.4-1.5c-7.5-6-13.4-13.2-17.6-21.8
						c-2.1-4.3-1.7-8.6-0.7-13c1.2-5.2,3.1-10.2,5.4-15c0.4-0.8,0.4-1.3-0.1-2.1c-1.8-2.8-3.5-5.6-4.1-8.9c-0.4-1.8-0.1-3.4,0.7-5.1
						c1.7-3.5,4-6.7,6.3-9.8c0.4-0.5,0.8-1.1,1.2-1.7c-4.6-0.8-9.1-1.5-13.5-2.3c-9.4-1.8-18.6-4.2-27-8.9c-2.9-1.6-5.6-3.4-7.7-6.1
						c-2.9-3.7-2.8-7.5,0.6-10.8c3.3-3.3,7.5-4.9,11.8-6.3c3.8-1.3,7.7-2.2,11.7-2.8c1-0.2,1.4-0.6,1.8-1.4c2.1-4.6,4.6-9.1,7-13.6
						c2.1-3.9,5.2-6.5,9.2-8.3c7.6-3.5,15.6-5,23.8-6.1c2.5-0.3,5-0.5,7.5-0.7c0.8-0.1,1.1-0.3,1.1-1.1c0.3-5.4,4.2-8.8,9.2-8.4
						c4.7,0.4,8,4.7,7.3,9.7c-0.2,1.2,0.3,1.5,1.3,1.7c7.6,1.7,14.9,4.1,21.6,8.1c3.1,1.8,5.9,3.9,8.5,6.3c3.4,3.1,5.5,6.9,6.7,11.3
						c0.3,1.2,0.8,2.4,1.1,3.6c0.2,0.8,0.6,0.9,1.3,0.8c2.8-0.6,5.5-1.2,8.3-1.8c0.6-0.1,1.1-0.4,0.8-1.1c-0.5-1.2,0.3-1.7,1.1-2.3
						c1.7-1.1,3.3-2.4,5-3.5c0.6-0.4,0.7-0.8,0.4-1.6c-4.8-10.8-7.5-22.1-9.1-33.7c-0.6-4.3,0.7-8.6,1.5-12.8c0.2-1,0.2-2-0.1-3
						c-0.9-3.2-1.6-6.5-2.3-9.8c-1-4.4,0.5-7.7,3.7-10.6C247.7,156.5,248.3,155.9,248.9,155.3z"/>
					<path class="st2" d="M266.3,273.2c2.6,4.6,5.3,8.9,8.9,12.5c2.4,2.4,5.2,4.2,8.5,5.2c5.4,1.6,8.9,4,14.2,5.9
						c0.7,0.3,1,0.7,1.1,1.4c0.6,4.8,0.6,4.7-4,6.2c-4,1.3-6.3,2.7-10.4,3.8c-2.2,0.7-3.3,2.2-3.6,4.3c-0.3,2.7,0,5.3,1.9,7.5
						c0.5,0.6,0.4,1,0.2,1.6c-0.9,3.3-0.4,6.2,2.3,8.4c0.6,0.5,0.6,0.9,0.4,1.5c-0.4,2,0.1,3.8,1.8,5.1c0.7,0.5,1,1,0.6,1.8
						c-0.1,0.2-0.1,0.5-0.1,0.7c-0.6,6.6,0.5,8.3,6.8,10c1.8,0.5,3.6,0.8,5.5,1.1c1.8,0.3,3.5,0,4.4-1.9c0.1-0.3,0.3-0.6,0.6-0.6
						c2.2,0.2,4.4-0.6,6.6-0.7c1.3-0.1,1.2,0.9,1.3,1.7c-1.4,10.2,1.2,19,0.9,25.1c-0.4,8.6-6.7,13.1-8.4,21.5
						c-0.1,0.4,7.8-11.6,9.9-10.6c2.3,1.1,5,11.4,4.9,11.9c-0.5,1.9-2.4,3.9-5,5.8c-10.9,3.2-22.4,5-34.3,5
						c-20.8,0-40.4-5.3-57.5-14.6c0.4-8.3,0.8-16.6,1.2-24.9c0.3-6.2,1.5-12.3,2.3-18.4c1.7-12.9,3.5-25.8,5.2-38.7
						c0.9-6.3,1.7-12.6,2.5-18.9c0.2-1.3,0.9-1.2,1.7-1.2c5.6,0,11-0.8,15.9-3.7c5.1-3.1,8.9-7.4,12.3-12.2
						C265.5,274.4,265.8,273.9,266.3,273.2z"/>
					<path class="st2" d="M352.3,249.9c-6.6,6.4-9.2,10-10.4,14.4c1-1.4,1.8-2.3,2.5-3.3c2.6-3.4,5.2-6.8,8.6-9.4
						c2-1.5,2.1-1.5,3.2,0.8c2.2,4.5,3.8,9.3,5.6,14c3.1,8.4,6,16.8,10.5,24.6c-2.3-0.9-3.7-2.5-8.8-10.4c0.9,3.7,2.6,6.9,5.1,9.8
						c2.6,2.8,5.9,4.5,9.2,6.2c2.9,1.5,4.7,3.3,4.5,6.8c-0.1,2.9,0,5.8,0.7,8.6c1.5,5.9,1.6,12.2,4.2,17.9c0.2,0.4,0.1,0.8,0.2,1.4
						c0.6-2,0.2-4-0.1-5.9c-0.4-1.9-0.8-3.7-0.8-5.7c0.6,1.6,1.5,3.1,1.8,4.8c0.8,3.8,1.1,7.7,1.1,11.6c-0.1,5.9-2.7,10.7-6.6,14.9
						c-6.8,7.3-14.9,12.6-24.7,15c-2.5,0.6-2.9,0.8-5.5,0.3c-1.3-0.3-1.9-0.8-1.8-2.2c0.5-9.2-1.6-18.4-2.4-27.5
						c-0.5-5-1.9-9.7-3.9-14.3c-0.2-0.5-0.4-1.1-0.7-1.7c4.7-0.2,9.2-1.2,13.6-2c8-1.4,14.9,1.3,21.1,6.1c0.2,0.2,0.4,0.4,1,0.9
						c-0.7-1.8-1.7-2.9-2.8-3.9c-1.7-1.5-3.8-2.6-5.8-3.5c-0.8-0.3-1.3-0.8-1.3-1.7c-0.1-2.2,1.9-4.7,4-5c1.6-0.3,3.3-0.2,5.4-0.2
						c-1.4-1.1-2.6-1-3.8-1.1c-4.1-0.2-7.8,1.3-11.6,2.9c-5.5,2.3-11.2,2.6-16.8,0.6c-2.6-0.9-4.2-2.9-5.7-5
						c-7.9-11.5-8.8-23.8-3.5-36.6c0.1-0.3,0.2-0.6,0.4-0.8c0.2-0.3,0.5-0.7,0-0.9c-0.5-0.3-0.6,0.2-0.8,0.5
						c-4.6,6.4-7.9,13.4-9.7,21.1c-0.2,0.9-0.4,1.8-0.6,2.7c-0.1-4.9-0.4-9.9,1.8-14.7c-1.4,0.8-2,2-2.3,4.3
						c-0.2,1.6-0.2,3.3-0.9,5.1c-0.3-2.4-0.5-4.6-0.8-6.8c-1.1,5.6-1.4,11.2-1.1,16.8c0.2,4-0.1,6.1-2.5,9.4
						c-0.8-0.7-1.2-1.6-1.7-2.5c-1.9-3.6-3.2-5.9-4.8-9.5c-1.6-3.5-3-6.8-2.2-10.5c0.3-1.5,1-3.5-0.5-4.6c-1.6-1.1-3.4,0-4.9,0.8
						c-3.2,1.6-5.2,4.3-6.1,8.1c-1.1-4.1-2.1-7.8-3.6-11.4c-1.3-3.2-2.9-6.3-5-9.1c-1.7-2.3-0.6-8,1.8-9.9c2.3-1.8,4.9-3.2,7.4-4.7
						c5.1-3,10.3-5.8,15.1-9.4c1.5-1.2,3.1-2.3,4-4c0.3-0.5,0.6-0.7,1.2-0.5C332,244.2,342.1,247.1,352.3,249.9z"/>
					<path class="st3" d="M304.3,211.2c-6.1,5.2-12.1,10.6-18.6,15.4c-2,1.5-4.1,2.7-6.1,4.1c-6.2,4.2-16.7,2.3-21.7-2.8
						c-1.6-1.6-2.4-3.8-3.1-5.8c-3.4-9.1-5.8-18.5-7.3-28.1c-0.5-3.6,0.2-7.2,0.9-10.7c1.4-6.6,1.9-13.3,2.6-20
						c0.2-1.9,0.7-3.8,1-5.7c0.2-1.1,0.7-1.6,1.7-1.8c15.2-2.7,30.1-2.7,44.4,3.9c3.7,1.7,7.1,3.7,10.4,6.1c0.9,0.7,1.1,1.3,0.9,2.3
						c-1.7,8.4-2,16.8-0.7,25.2c0.4,2.5,0.9,2.6,2.9,1c2.2-1.9,3.8-4.3,5.9-6.3c0.6-0.6,1.3-1.1,1.9-1.6c0.6-0.5,1-0.7,1.4,0.2
						c0.3,0.7,1,0.9,1.7,0.8c4.6-0.3,8.1,4.1,6.5,9.5c-0.9,2.9-2.8,5-5.1,6.8c-2.7,2.1-5.8,3.3-9.1,4.2c-1.4,0.4-2.7-0.2-3.9-1
						c-1.6-1-2.8-0.4-2.8,1.4c-0.2,5.5-1.7,10.8-2.4,16.2c-0.3,2.2-0.8,4.4-0.4,6.6c0.1,0.6-0.4,1-0.7,1.4c-2.8,3.4-6.1,6.2-9.8,8.8
						c3.4-6.3,5.4-13,7.3-19.7c-1,0.9-1.2,2.2-1.7,3.4c-2.1,5.5-4.1,11.1-7.4,16.1c-1.4,2.2-3.1,4-5.3,5.2c-2,1.1-3.9,2.3-5.8,3.6
						c-2.9,2.1-6.3,2.5-9.9,2.7c0.2-1.6,1-3,0.5-4.7c-1.1,0.6-1.1,1.9-1.7,2.8c-0.4,0.6-0.1,1.8-1.2,1.8c-1.1-0.1-2.5-0.2-3-1.2
						c-1.9-3.8-4.6-7.3-4.5-12c0.6-0.1,0.9,0.4,1.3,0.7c2.6,1.9,5.5,3.2,8.7,3.8c2.2,0.4,4.2,0,6.1-1.5
						C288.9,233.5,297.3,223,304.3,211.2z"/>
					<g>
						<path class="st2" d="M254.7,177.2c1.2,2.4,0.9,2.5,2.7,3c1.8,0.5,9.1-0.1,9.1-0.1s1.3-0.7,1.2-1.2c-0.1-0.5-2-3.7-2-3.7
							l-8.7-0.2C257,175.1,256.4,175.8,254.7,177.2z"/>
						<path class="st2" d="M283.4,179c1,2,3.7,3.2,3.7,3.2l8.5,0.1l3.4-2c0,0-2.9-2.8-4.5-3.4c-1.6-0.6-7.9-0.9-8.7-0.7
							C285,176.3,283.4,179,283.4,179z"/>
					</g>
					<path class="st2" d="M348.3,166.8c-3.9,1.9-6.8,0.6-9.3-2.2c-3.7-4.1-5.7-9.3-7.5-14.4c-1.1-3.1-1.9-6.3-2.6-9.7
						c-0.9,1.3-1.5,2.6-2.6,3.5c-1.7,1.4-3.2,1.3-4.7-0.3c-1.8-2.1-1.6-4.5-1.2-7c0.5-3,0.3-3.2-2.6-2.6c-4.7,1-9.2,0-13.9-1
						c-10.1-2.3-14.7-9.1-16.4-18.6c-0.2-1.2-0.4-2.3-0.7-3.9c-2.8,4.8-5.1,9.5-6.9,14.4c-0.7,2-1.9,3.5-3.6,4.9
						c-2.1,1.7-4.7,0.9-7.4,1.6c3.1-3.6,4.2-7.6,5.3-11.7c-1,0.1-1,0.8-1.2,1.3c-2.4,6-7.1,9.6-13.1,11.1c-3.5,0.9-7-0.5-9.9-2.7
						c-2-1.5-3.4-3.5-4.8-5.6c-0.4-0.5-0.7-1.1-1.2-1.7c-0.1,3.1,2.9,8.3,6.6,11.9c-3.5,0.2-7-2-9.7-6.4c-4,9.1,0.4,15.7,6.1,22.2
						c-9.4-6.7-14.8-16.9-11.8-26.9c2.3-7.7,9.9-13.7,17.4-13.6c0.3,0,0.6,0,0.9,0c2.5,0.3,2.5,0.3,2.3,2.7
						c-0.4,4.7-0.1,6.7,1.5,8.9c0.4,0,0.3-0.3,0.3-0.5c-1.4-9,2.1-15.8,9.8-20.3c12.5-7.2,25.6-8.1,38.8-2.3
						c7.1,3.1,11.8,8.7,13.5,16.5c0.6,2.5,0.3,5.1,0.1,7.7c0,0.4-0.2,1,0.3,1.1c0.7,0.2,0.7-0.6,0.8-0.9c0.5-1.7,1-3.3,0.9-5.1
						c0-1.3,0.6-2,1.8-2.4c7.7-2.7,14.5-1,20.4,4.2c8.6,7.6,9,18.6,3.7,28.2c-0.4,0.8-0.9,0.8-1.6,0.8c-2.2,0-4.3,0.4-6.7,1.5
						c1.8,0.6,3.2,0.5,4.6,0.4c3.7-0.1,6.3,1.7,8.4,4.4c6.8,8.9,1.6,24.3-9.1,27.3c-0.6,0.2-1.2,0.2-1.9,0.2
						C347.5,178.6,349.4,173.6,348.3,166.8z"/>
					<path class="st4" d="M199.7,246.6c-28.2-0.4-36.8-1.6-62.2-10.8c-1.1-0.4-1.1-0.8-0.7-1.8c2.1-4.6,3.3-7.5,5.8-11.9
						c1.9-3.4,4.9-5.4,8.2-7c7-3.3,14.5-4.7,22-5.6c14.4-1.7,28.1,0.9,41.2,6.9c2,0.9,3.8,2.2,5.8,3.2c10.5,5.1,10.5,15.7,9.8,23.7
						c-0.1,1.2-0.8,1.4-1.8,1.5c-3,0.3-6.1,0.8-9.1,1C212.4,246.4,205.9,246.5,199.7,246.6z"/>
					<path class="st2" d="M155.9,277.9c2.8,4.7,7.1,7.2,11.9,9.6c-0.4-1-1-1.4-1.5-1.9c-2.2-1.9-4.4-3.7-6.6-5.6
						c-0.4-0.3-0.7-0.8-1.1-1.2c-2.1-2.7-1.1-5.3,2.3-5.8c0.4-0.1,0.8-0.1,1.7-0.3c-1.9,2.6-0.1,3.9,1.4,5.4
						c4.9,4.7,10.1,8.8,15.8,12.5c3.1,2,6.1,2.3,9.5,0.9c4.8-1.9,9.4-4.1,13.9-6.7c0.5-0.3,1-0.6,1.7-1c-0.1,5.4-0.2,10.6-1.1,15.7
						c-0.2,1-0.9,1.5-1.7,1.6c-4,0.3-7.6,2.1-11.2,3.7c-1.6,0.7-3.3,1.4-4.9,2.3c3.2-0.3,6.3-1.3,9.4-2.3c1.3-0.4,3-1.7,3.9-0.9
						c0.7,0.7-0.3,2.5-0.6,3.9c-0.7,2.6-1.5,5.2-2.3,7.8c-1,3.1-2.8,5.7-5.1,7.9c-3.5,3.5-6.9,7-11,9.9c-0.7,0.5-1.3,1.1-0.7,1.9
						c0.7,0.8,1.4,0.3,2-0.2c4.2-3,7.9-6.7,11.5-10.4c0.5-0.5,0.9-1,1.5-1.4c-1.3,3.5-3.9,6.2-5.8,9.4c1.8-0.7,3-2.1,4.1-3.5
						c2.6-3.3,4.3-7,5.3-11.1c1.1-4.4,2.2-8.8,3.3-13.3c0.3-1.1,1.1-1.4,1.9-1.8c1.7-0.8,2.4-2.1,2.6-3.8c0.7-4.5,0.9-9.1,1-13.6
						c0-0.7,0-1.4,0.1-2.2c0.2-2.3,0-4.2-2.6-5c-0.7-0.2-0.8-1.1-1.3-1.5c3.1-2.5,6.7-2.2,10.3-2.1c-0.6,6.2-1.1,12.4-1.8,18.5
						c-1.7,14.2-8.3,26-17.5,36.5c-4.3,4.9-8.9,9.3-15,11.8c-4.8,2.1-9.9,2.9-15.1,1.5c-1.9-0.5-3.5-1.4-4.8-2.9
						c-3.6-4.1-6.8-8.4-9.3-13.2c-2-3.8-1.6-7.8-0.7-11.7c0.8-3.1,1.8-6.1,3-9c0.2-0.5,0.2-1.2,1.2-0.8c3.3,1.4,6.9,1.7,10.4,1.6
						c4.4-0.2,8.7,0.6,13.1,0.4c0.5,0,1.4,0.3,1.5-0.5c0.1-0.9-0.9-0.7-1.4-0.7c-5.3-0.6-10.5-1.7-15.4-4.2
						c-5.1-2.6-8.7-6.6-10.9-12c-0.8-1.9-0.8-3.6,0.3-5.5C152.8,282.4,154.2,280.2,155.9,277.9z"/>
					<path class="st5" d="M195.1,289c2.8-1.3,5.6-2.7,8.3-4.2c0.5-0.3,1-0.6,1.7-1c-0.1,5.4-0.2,10.6-1.1,15.7
						c-0.2,1-0.9,1.5-1.7,1.6c-4,0.3-7.6,2.1-11.2,3.7c-0.6,0.2-1.2,0.5-1.7,0.8c2.8-2,5.8-5.1,5.8-5.1V289L195.1,289z M186.8,306.9
						c-0.4,0.2-0.8,0.3-1.2,0.3c-3,0,8.4,0.5,8.4,0.5l-8.9,21.9c2.2-2,4.3-4.1,6.4-6.1c2.3-2.3,4.1-4.8,5.1-7.9
						c0.8-2.6,1.6-5.1,2.3-7.8c0.3-1.3,1.4-3.2,0.6-3.9c-0.9-0.8-2.6,0.4-3.9,0.9C192.6,305.7,189.8,306.5,186.8,306.9L186.8,306.9z
						 M180.3,335.6l-7.4,8c2.2-0.3,4.4-1,6.5-1.9c6-2.6,10.7-7,15-11.8c9.2-10.6,15.8-22.3,17.5-36.5c0.8-6.2,1.2-12.3,1.8-18.5
						c-3.6-0.1-7.2-0.4-10.3,2.1c0.4,0.4,0.5,1.2,1.3,1.5c2.6,0.8,2.8,2.8,2.6,5c-0.1,0.7-0.1,1.4-0.1,2.2c-0.1,4.6-0.3,9.1-1,13.6
						c-0.3,1.7-1,3-2.6,3.8c-0.8,0.3-1.6,0.7-1.9,1.8c-1,4.4-2.2,8.8-3.3,13.3c-1,4.1-2.7,7.8-5.3,11.1c-1.1,1.4-2.3,2.8-4.1,3.5
						c1.9-3.2,4.5-5.9,5.8-9.4c-0.6,0.4-1,0.9-1.5,1.4c-3.6,3.7-7.2,7.4-11.5,10.4C181.3,335.4,180.8,335.8,180.3,335.6z"/>
					<path class="st2" d="M221.3,302.1c-2.3,4.3-4,8.6-6.5,12.4c3.3-13.2,1.1-26.4-0.2-39.7c7.2-0.4,14.6-0.9,22.2-2.3
						c-1.9,2.8-3.5,5.5-4.7,8.4c-0.7,1.6-1.3,3.2-2.1,4.8c-0.5,1-0.9,2-2.1,2.3c-0.6,0.2-0.8,0.7-0.7,1.3c0.1,0.7,0.7,0.8,1.2,0.9
						c1.1,0.1,2.3,0.4,3.4,0.4c1.2,0,1.4,0.4,1.2,1.5c-0.8,5.9-1.6,11.8-2.4,17.7c-1.7,13-3.5,25.9-5.2,38.9
						c-0.9,7-2.2,13.9-2.5,20.9c-0.4,7.5-0.7,14.9-1.1,22.4c-6-1.9-12-2.5-16.7-6.2c1.9-8,5.3-20.2,6.6-28.6
						c1.4,3.4,1.9,6.6,2.3,9.9c0.4,3.3-0.4,6.5-1.2,9.7c1.8-2.8,2.8-5.9,2.9-9.2c0.1-4.6-1.1-9-2.5-13.4c-2-6.4-2.5-12.9-1.1-19.5
						c1.2-5.4,2.2-10.9,3.3-16.4c0.1-0.7,0.4-1.2,0.8-1.8c2.2-3.9,4.1-7.9,5-12.3C221.4,303.5,221.7,303,221.3,302.1z"/>
					<path class="st2" d="M252.8,153.8c1.3-5.9,2.6-11.5,3.8-17.1c0.2-0.7,0.5-1,1.3-1.2c28.1-7.6,56.4,2,73,27.4
						c0.4,0.6,0.6,1,0.3,1.8c-1.9,4-3.6,8.1-5.5,12.3c-1.5-2.2-2.9-4.3-4.5-6.3c-1.5-2-3.6-3.5-5.8-4.7c2.9,3.3,5.9,6.6,7.8,10.6
						c-2.6-2.8-5.2-5.7-8-8.3c-11.8-10.7-25.8-15.8-41.6-16.2C266.6,151.9,259.8,152.5,252.8,153.8z"/>
					<path class="st4" d="M228.4,247.1c-1.3,2.9-3.3,5.1-5.6,7c-5.5,4.4-12,7.1-18.5,9.8c-0.4,0.2-0.8,0.1-1.2,0.1
						c-18.6-0.1-37-1.5-55.2-5.4c-4.5-1-9-2.2-13.1-4.3c-0.6-0.3-1.2-0.6-1.7-1c-2.9-1.9-3.1-2.3-2-5.5c0.9-2.6,2-5.3,2.9-7.9
						c0.3-0.7,0.5-1.1,1.4-0.7c15.9,6.1,32.6,8.3,49.5,9.1c14.1,0.7,28.2,0.7,42.2-1.2C227.5,247,227.9,247.1,228.4,247.1z"/>
					<path class="st4" d="M238.4,247.9c6,2.2,11.7,3.7,16.5,7.7c0.6,0.5,1.1,1,1.5,1.5c2,2.4,1.8,4.5-0.6,6.6
						c-1.9,1.7-4.2,2.7-6.6,3.6c-7.5,2.7-15.3,3.8-23.2,4.6c-8.7,0.9-17.5,1.1-26.3,0.9c-23.6-0.6-47-2.9-69.8-9.6
						c-5.2-1.5-10.3-3.4-15.1-6.1c-1.8-1-3.5-2.2-4.9-3.6c-2.6-2.8-2.5-5.2,0.6-7.6c2-1.5,4.2-2.5,6.5-3.3c4.8-1.7,8.5-2.7,13.7-3.5
						c-1.2,3.3-2.2,6.5-3.4,9.5c-0.7,1.9-0.2,3.2,1,4.6c2.1,2.1,4.7,3.3,7.4,4.3c7.2,2.8,15.9,4.6,23.5,5.7
						c15.9,2.4,32,3.5,48.1,3.3c8.5-0.1,17-0.5,25.4-2.5c2.2-0.5,4.3-1.2,6.1-2.5c1.5-1.1,2.2-2.5,1.7-4.5
						C239.6,254.1,239.1,251.1,238.4,247.9z"/>
					<path class="st6" d="M309.7,305.8c-1.4-1.5-3.3-2-5.2-2.4c-0.8-0.1-1.3-0.4-1.4-1.2c-0.5-3.7-0.7-7.4,0-11.1
						c0.7-4.1,3.4-6.5,7.3-7.7c0.4,1.6-0.1,3-0.4,4.4c-0.5,2.6-0.2,5.1,0.8,7.6c2.1,5.4,4.4,10.8,7.5,15.7c3.5,5.6,5.5,11.6,6.7,18
						c0.2,1.3,0.3,2.6,0.8,3.9c0.7,1.9,0,3.2-1.3,4.5c-1.5,1.6-3,3.4-5,4.7c0.2-0.9,1.1-1.5,0.7-2.4c-11.9,6.5-13.5,6.5-21.8,4.7
						c-0.1,0.7,0.7,0.7,0.9,1.3c-2.1-0.6-5.4-0.5-6.7-2.1c-0.8-1-0.5-3.7,0-5c0.6-1.6,5.8-2.2,7.7-2.4c2-0.2,2.5-0.8,2.1-2.7
						c-3.8,1.1-7.7,2.4-11.5,2.1c-1.2-0.1-2.7-6.2-1-6.4c2.6-0.4,6.6-1.7,9.1-2.6c2.1-0.8,3-3.2-2-1.7c-2.5,0.8-7.2,2.6-9.9,2.4
						c-1-0.1-1.5-3.5-1.3-5c0.1-1.1,0.8-1.4,1.6-1.6c2.9-0.9,5.8-1.9,8.7-2.8c2-0.6,5.1-5.1-0.5-2.6c-2.7,1.2-5.4,2.3-9.2,2.9
						c-2-0.3-2.6-3.6-2.7-5.5c-0.1-1.4,0.5-2.2,1.9-2.6c4.3-1.3,8.5-2.8,12.8-4.1c3.4-1,6.9-1.1,10.3-0.3
						C308.9,306,309.2,306.3,309.7,305.8z"/>
					<path class="st2" d="M325,318.5c4.3,9.3,7.5,18.8,7.2,29.2c0.6-1.1,0.7-7.5,0.3-9.4c-1.2-6.3-1.8-12.8-4.8-18.7
						c-0.2-0.4-0.3-0.9-0.4-1.4c-0.2-0.7,0-1,0.8-0.8c4,0.6,8.1,0.9,12,2.4c0.9,0.3,1.5,0.9,1.9,1.7c3.3,6.6,4.7,13.6,5,21
						c0.3,10.7,0.3,21.5-1.2,32.1c-0.4,2.5-1.2,4.9-2.1,7.2c-0.3,0.7-0.6,1.1-1.3,1.3c-4.6,1.1-9.2,2.1-14.1,3.3
						C332.8,363.4,330.6,340.9,325,318.5z"/>
					<path class="st7" d="M314.5,225.5c-1.2,2.6-2.8,4.8-4.3,7.1c-1.5,2.3-3.4,4.4-5.3,6.4c4.4-3.1,7.5-7.3,10.5-12.2
						c0.5,2.8,0.9,5.1,1.4,7.3c0.2,0.9-0.2,1.3-0.8,1.8c-4.1,2.9-8.5,5.4-12.4,8.6c-1.6,1.2-3.2,2.5-4.7,3.9
						c6.4-3.1,12.4-6.8,18.4-10.7c0.9,2.7,0.9,2.7-1.5,3.9c-11.2,6.1-22.5,12.1-33.6,18.2c-2.5,1.4-5,2.5-7.9,1.1
						c4.6-3,9.9-4.7,14.6-7.6c-3.7,0.9-7.3,2.2-10.8,3.9c-1.7,0.8-3.3,1.6-5,2.5c-0.7,0.4-1.3,0.3-1.7-0.4c-0.4-0.8,0.5-0.8,0.8-1
						c6.9-4.4,14.2-8.3,20.9-13c4.8-3.4,9.5-7,13.2-11.6c1.9-2.3,3.5-4.9,4.2-7.9c0.3-1.3,0.9-1.4,1.9-0.9
						C313.1,225.2,313.8,225.3,314.5,225.5z"/>
					<path class="st7" d="M299.1,292.3c-7.9-10.2-14.6-20.8-26.6-26.1c2.7-0.5,5.2,0.4,11.1,3.9c-1.3-2.1-5.5-4.5-9.1-5.1
						c-0.4-0.1-0.7-0.1-1.1-0.2c-0.6-0.1-0.8-0.3-0.7-1c0.1-0.7,0.5-0.7,1-0.7c7.2,1,13.9,3.1,18.1,9.7
						C295.5,278.6,297.4,285.1,299.1,292.3z"/>
					<path class="st7" d="M249.7,236.5c2.3,3.1,3.7,6.7,6.1,9.7c-1.1-2.5-2.2-4.9-3.3-7.4c-0.3-0.6-0.7-1.1-0.9-1.7
						c-1.2-2.5-1.2-2.5,1-4.1c1-0.7,2-1.5,3.2-2.4c2.8,9.8,7.3,18.7,12.3,27.4c-1.1,0.6-1.6,0.2-2.3-0.6c-1.8-2.3-3.5-4.7-5.9-6.6
						c1.4,2.8,3.5,5.2,5.3,7.9C262.2,258.4,249.5,240.1,249.7,236.5z"/>
					<path class="st7" d="M294.1,289.2c-3.8-2.2-7.8-3.6-11.8-5.3c-5.5-2.4-9.3-6.6-11.3-12.3c-0.1-0.3-0.3-0.7-0.3-1
						c-0.1-0.7,0.1-1.5,0.6-2c0.5-0.5,1.1,0.1,1.6,0.3c5.8,2.6,10.3,7,14.4,11.7C289.6,283.3,291.8,286.3,294.1,289.2z"/>
					<path class="st7" d="M233.7,287.2c9.4-6.9,18.1-14.8,29.7-18.1c-1.7,2.5-3.7,4.5-5.7,6.6c-1.2,1.3-2.6,2.5-3.8,3.8
						c-4.5,5.2-10.7,6.5-17,7.5C236,287.1,235,287.6,233.7,287.2z"/>
					<path class="st3" d="M172.2,281.8c2.2,1.1,4.2,0.8,6.4-0.2c2.3-1,4.7-0.3,6.8,0.5c2.7,1,5.4,1.1,8,0c0.9-0.4,1.3-0.2,1.4,0.8
						c0.3,3.1-0.1,3.9-3,5.1c-7.1,3-7.6,2.9-13.9-1.5c-2-1.4-3.9-2.9-5.9-4.4C172.1,282.1,172.1,281.9,172.2,281.8z"/>
					<path class="st7" d="M233.1,284.8c1.6-4.6,3.6-8.8,6.8-12.5c0.4-0.5,0.9-0.5,1.4-0.6c3.8-0.8,7.5-1.8,11-3.4
						c0.1-0.1,0.3,0,0.7,0c-0.7,0.6-1.3,1.1-1.9,1.6c3.5-1.5,7-2.7,10.8-2.8C250.8,270.6,242.3,278.2,233.1,284.8z"/>
					<path class="st0" d="M328.4,306.1c2.8,4.2,6.9,6.9,10.1,10.9c-4.3-1.1-8.4-1.5-12.5-1.9c-0.9-0.1-1.3-0.3-0.9-1.3
						C326,311.2,327,308.7,328.4,306.1z"/>
					<path class="st2" d="M319.6,361.6c0.2,8.8,0.9,16.9,2.8,24.8c0.1,0.5,0.5,1.2-0.2,1.4c-0.8,0.2-0.8-0.7-1-1.2
						c-1.3-4.3-1.9-8.8-2.3-13.3c-0.8-7.9-1-15.9-1.1-23.9c0-0.6-0.3-1.4,0.8-1.4c1.1,0,0.6,0.8,0.6,1.3
						C319.5,353.7,319.7,358,319.6,361.6z"/>
					<path class="st4" d="M189.2,199.8c2.5,0,2.6,2.6,2.1,5c-0.2,0.7-0.5,1-1.2,0.9c-2.1-0.3-2.1-0.2-4.2-0.4
						c-0.6-0.1-0.8-0.3-0.8-0.9C184.9,202.1,186.9,199.8,189.2,199.8z"/>
					<path class="st2" d="M246.4,248.1c-2.4-0.9-5.1-1.8-7.7-2.8c-0.6-0.2-2.1-3.6-1.7-4.2c0.4-0.7,1.1-0.4,1.7-0.1
						c1.4,0.8,2.6,1.7,3.7,2.8C243.8,245.3,245.1,246.8,246.4,248.1z"/>
					<path class="st2" d="M195.8,286.3c1.1-2,1.9-3.6,2.8-5.2c0.1-0.2,0.4-0.7,0.5-0.6c1.9,0.4,3.8,0.2,5.7,0.3
						C202.2,283.1,199.2,284.5,195.8,286.3z"/>
					<path class="st7" d="M266.9,265.4c0.2-1.4,0.6-2.7,1.4-3.8c0.3-0.4,0.6-1,1.3-0.8c0.6,0.2,1,0.7,1.1,1.3
						c0.2,1.9-0.7,3.6-1.4,5.3c-0.1,0.4-0.5,0.4-0.7,0.2C267.8,266.9,266.7,266.7,266.9,265.4z"/>
					<path class="st7" d="M255.1,267c1.7-1.3,3.3-2.6,4.3-4.5c0.5-0.9,1.8-0.7,2.8-0.8c0.5,0,0.3,0.4,0.3,0.7c0,0.7-0.1,1.4-0.1,2.1
						c0,0.5,0,0.8-0.6,0.8C259.5,265.5,257.3,266.3,255.1,267z"/>
					<path class="st7" d="M266.6,265.9c-1.3-1.4-1.8-2.7-1.4-4.3c0.3-1.2,1.5-1.1,2.7-1.3C267,262.1,266.5,263.8,266.6,265.9z"/>
					<path class="st1" d="M241,338.1c-0.1,2.3-2,4.1-4.3,4c-2.2-0.1-4-2-3.9-4.2c0-2.2,2-4.2,4.2-4.1
						C239.2,333.9,241,335.9,241,338.1z"/>
					<path class="st1" d="M247.8,298.4c0,2.3-1.8,4.1-4.1,4.1c-2.2,0-4-1.8-4-4c0-2.3,1.8-4.2,4.1-4.2
						C246.1,294.3,247.8,296.1,247.8,298.4z"/>
					<path class="st1" d="M233.9,387.7c-2.3,0-4.1-1.9-4-4.2c0.1-2.2,1.8-3.9,4.1-3.9c2.3,0,4.1,1.8,4.1,4.1
						C238,386,236.2,387.7,233.9,387.7z"/>
					<path class="st1" d="M324.3,245.5c0.3-0.5,0.6-0.2,0.9-0.1c5.3,1.2,10.5,2.8,15.6,4.9c0.4,0.2,0.9,0.4,1.3,0.6
						c0.5,0.3,1.1,0.5,0.9,1.2c-0.2,0.7-0.8,0.5-1.4,0.5c-1.6-0.2-3.2-0.7-4.6-1.4c-4-1.7-8.1-3.4-12.1-5.1
						C324.7,246,324.3,246,324.3,245.5z"/>
					<path class="st1" d="M271,215.6c-2.6,0-4.7-0.3-6.8-1c-1.6-0.5-1.9-1.2-0.7-2.3c1.5-1.5,2-3.2,1-5.2c-0.7-1.5-1.2-3.1-1.8-4.7
						c-0.2-0.6-0.8-1.3-0.1-2c0.6-0.6,1.2-0.3,1.9-0.1c3.1,0.7,6.2,1.4,9.3,1.7c4.4,0.4,8.7-0.1,12.9-1.6c0.7-0.2,1.4-0.7,2,0
						c0.6,0.6,0.2,1.3-0.1,2c-2.6,6.2-6.6,11-13.4,12.7C273.7,215.4,272.2,215.6,271,215.6z"/>
					<path class="st1" d="M279,167c5,0.1,10-0.7,15.1-0.4c4.6,0.3,7.5,3.3,7.5,8.2c-3.1-4.6-7.5-4.2-11.9-3.7
						c-2.1,0.2-4.2,0.4-6.3,0.2C280.1,171.1,279.3,170.4,279,167z"/>
					<path class="st1" d="M317.3,195c1.9-0.5,3.5-0.4,4.5,1.2c0.7,1.1,0.4,2.2-0.6,3.2c-0.2-1.1,0.1-2.3-1-2.8
						c-0.6-0.3-1.3-0.2-1.9,0c-0.9,0.4-1.3,0.7-0.5,1.7c1.7,2,0.8,4.4-1.7,4.9c-0.7,0.1-1.4,0.2-1.6-0.7c-0.2-0.7,0.2-1.2,0.8-1.4
						c0.5-0.2,1.1-0.2,1.1-0.9c0-0.7-0.6-1.1-1.2-1.3c-1.3-0.4-1.4-1.2-1-2.4c0.8-2.2,1.7-4.4,3.4-6c1.8-1.8,4.2-2.4,6.1-1.5
						c2.2,1.1,2.9,3.1,2.8,5.4c-0.1,2.4-1.1,4.4-2.3,6.3c-0.5,0.7-1.1,1.1-1.8,0.6c-0.7-0.5-0.5-1.1-0.1-1.7
						c0.7-1.1,1.4-2.2,1.8-3.5c0.3-0.9,0.4-1.9,0.2-2.8c-0.4-2.2-2.2-3.1-4.1-1.9C318.9,192.3,318,193.4,317.3,195z"/>
					<path class="st1" d="M285.9,181.5c0.5,0,0.9,0.1,1.6,0.2c-0.7-1.4-1.1-2.7-1.1-4.3c-1.2,0.2-1.4,1.3-2,1.9
						c-0.7,0.8-1.2,2.3-2.4,1.8c-1.1-0.4-1.2-1.9-1.1-3.5c0.4,0.8,0.7,1.2,0.9,1.7c0.4,0,0.6-0.3,0.7-0.6c1.2-3,3.5-3.8,6.5-3.4
						c2.7,0.4,5.5,0.3,8.1,1.5c0.6,0.3,0.7,0.4,0.4,1c-0.2,0.4,0.2,0.5,0.4,0.7c0.8,0.9,1.8,1.8,2,3.2c-0.9-0.7-1.7-1.4-2.6-2.2
						c-1.2-1-2.4-1.8-3.9-2.1c-0.4-0.1-1-0.3-1.3,0.3c-0.2,0.6,0.3,1,0.7,1.1c2,0.4,2.2,0.9,2.1,2.2c0,0.3-0.4,0.8-0.3,1
						c0.3,0.4,1.9,0,1.6,0.2c-0.9,0.5-4.4,0.9-5.2,0.9C289.4,183,287.5,182.9,285.9,181.5z"/>
					<path class="st1" d="M252.7,178.9c0.4-1.6,1.7-2.3,2.7-3.6c-0.6,0.1-1.1,0.2-1.5,0.2c-0.2-0.1-0.2-0.2-0.1-0.3
						c1.1-0.8,2.4-1,3.7-1.1c1.7-0.1,3.5-0.1,5.2-0.1c3.5,0.1,4.6,1,5.8,4.2c0.3,0.9-0.9,2.7-1.8,2.7c-0.2,0-0.5,0-0.6-0.3
						c-0.1-0.3,0-0.6,0.2-0.8c1.6-1.7-0.6-2.4-1-3.5c-0.3-1-1.6-1-2.7-0.9c-0.2,0-0.5,0.2-0.5,0.4c-0.1,0.3,0.1,0.6,0.4,0.7
						c0.8,0.6,1.8,0.5,2.7,0.6c0.4,1.1-1.2,1.7-0.5,2.9c0.1,0.2-0.5,0.4-0.9,0.4c-1.7,0.4-3.4,0.5-5.2,0.2c-0.7-0.1-1.5-0.2-0.4-1.1
						c0.6-0.5-0.3-1.1-0.4-1.6c-0.6-2.1-0.9-2.2-2.7-0.9C254.4,177.7,253.5,178.3,252.7,178.9z"/>
					<path class="st1" d="M271.2,172.9c0.1,0.5,0,1.1,0.2,1.6c0.6,2.5,0.4,5-0.8,7.3c-1.3,2.4-2.3,5-3.8,7.3c-1.2,2-0.9,3.7,0.1,5.5
						c0.4,0.6,0.7,1.2,0.9,1.9c-1.8-1.3-3.1-2.9-3.8-5.1c-1.2,1.5-0.3,2.7,0.6,3.9c-1.6-0.3-2.5-1.8-2-3.4c0.2-0.7,0.6-1.3,1.1-1.8
						c3.5-3.8,4.7-8.7,6.3-13.3c0.7-2-0.2-4.1-0.5-6.2c-0.1-0.5-0.2-0.9-0.1-1.4C270.4,170.3,270.4,171.8,271.2,172.9L271.2,172.9z"
						/>
					<path class="st1" d="M251.6,172.6c0.6-4.9,2-6.3,6.3-6c2.7,0.2,5.3,0.7,8,1c0.9,0.1,0.8,0.5,0.7,1.1c-0.3,1.2-1.1,1.8-2.3,1.8
						c-1.6,0.1-3.1-0.2-4.6-0.5C256.7,169.4,253.9,169.4,251.6,172.6z"/>
					<path class="st1" d="M274.3,218.2c-1.5,2.6-3.4,3.5-6,3.2c-2-0.2-3.4-1.3-4.3-3.6C267.4,219.6,270.7,219.4,274.3,218.2z"/>
					<path class="st8" d="M277.7,196.7c3-1.6,1.2-4,1-6.2c1.5,1.4,2.3,3.4,1.9,4.6C280.2,196.3,279.1,196.5,277.7,196.7z"/>
					<path class="st9" d="M261.9,229.1c-3-1-4.9-3.4-5.2-6.3C257.7,225.6,260.2,227,261.9,229.1z"/>
					<path class="st10" d="M254.3,206.8c0.1-0.5-0.3-1.2,0.4-1.3c0.6-0.1,0.6,0.6,0.8,1c0.3,0.8,0.7,1.6,0.7,2.6
						c0,0.4-0.1,0.7-0.5,0.8c-0.5,0.1-0.9-0.1-1-0.6C254.5,208.5,254.4,207.6,254.3,206.8z"/>
					<path class="st11" d="M295.7,207.8c-0.3,1-0.6,1.9-1,2.9c-0.1,0.4-0.5,0.8-1,0.5c-0.5-0.2-0.5-0.7-0.3-1.1
						c0.4-0.9,0.8-1.7,1.3-2.6c0.2-0.3,0.2-0.9,0.8-0.7C295.8,207,295.7,207.4,295.7,207.8z"/>
					<path class="st12" d="M271.3,173c0.1-0.8-0.6-1.6-0.3-2.6c1.1,1.2,2,2.4,1.5,4.1C271.5,174.2,271.7,173.4,271.3,173
						C271.2,172.9,271.3,173,271.3,173z"/>
					<path class="st8" d="M277.1,195.4c-0.9,0.3-1.9,0.6-2.8,0.9C274.7,194.3,275.5,194,277.1,195.4z"/>
					<path class="st13" d="M346.4,126.1c2.5,2.8,2.6,6.2,2.3,9.6c-0.3,2.6-0.6,5.1-1.6,7.5c-0.2,0.5-0.4,1.4-1.1,1.2
						c-0.8-0.2-0.6-1.1-0.4-1.7c0.7-3.1,1.6-6.1,1.8-9.3C347.5,130.9,347.4,128.5,346.4,126.1z"/>
					<path class="st1" d="M276.9,98.1c-4.9,1.4-8.3,4.7-11.5,8.2c-0.7,0.7-1.7,2.3-2.4,1.6c-0.9-0.8,0.6-1.9,1.2-2.7
						c2.7-3.5,6.1-6.1,10.6-6.9c0.4-0.1,0.8-0.1,1.2-0.1C276.4,98,276.6,98.1,276.9,98.1z"/>
					<path class="st14" d="M276.2,124.4c-0.1,2.7-2.1,5.1-4.7,5.9C272.9,127.9,275.1,126.6,276.2,124.4z"/>
					<path class="st1" d="M201.6,288.6c0.9,0,1.3-0.1,1.5,0.4c0.2,0.4,0,0.7-0.3,1c-2.3,1.7-5,2.7-7.8,3.5c-0.3,0.1-0.6-0.1-0.8-0.4
						c-0.2-0.3-0.1-0.6,0.1-0.8C197,291,199.5,289.7,201.6,288.6z"/>
					<path class="st13" d="M213.9,345.5c0-1.3,0-2.5,0-3.8c0-0.3,0-0.6,0.4-0.7c0.4,0,0.5,0.3,0.5,0.6c0.2,4,1.2,7.8,1.9,11.7
						c0.1,0.4,0.2,0.9-0.3,1.1c-0.6,0.2-0.8-0.4-1-0.8C213.9,351.1,213.9,348.3,213.9,345.5z"/>
					<path class="st13" d="M258.8,137.2c1.5,4-0.8,11.1-4,12.3C257.2,145.6,257.8,141.5,258.8,137.2z"/>
					<path class="st14" d="M285.3,149.8c1.6-3.8,3.5-7.5,3.7-12.1C290.6,140.9,288.4,148,285.3,149.8z"/>
					<path class="st14" d="M329.7,164.5c-0.9,1.3-6.1,7.2-6.7,7.5C322.8,169.7,326.6,165.4,329.7,164.5z"/>
					<path class="st13" d="M310.4,156.8c-0.8-2.2,0.7-6,2.9-7.5C312.2,151.8,311.9,154.4,310.4,156.8z"/>
					<path class="st1" d="M234.2,268.8c-1-0.1-2.1-0.3-3.2-0.5c-0.3-0.1-0.8,0-0.8-0.5c0-0.4,0.4-0.6,0.8-0.6
						c1.7-0.2,3.4-0.5,5.2-0.7c6.1-0.6,11.6-2.7,16.6-6.3c0.3-0.2,0.7-0.9,1.2-0.4c0.4,0.5-0.3,0.8-0.6,1.1
						C248.1,266.4,241.4,268.2,234.2,268.8z"/>
					<path class="st1" d="M112.5,251.3c2.5,1.8,5,3.4,7.7,4.6c1.8,0.8,3.6,1.5,5.5,2.3c1.1,0.5,2.2,0.9,3.2,1.6
						c0.3,0.2,0.8,0.4,0.7,0.9c-0.2,0.6-0.7,0.3-1.1,0.2c-0.5,0-1.1-0.1-1.6-0.3c-5.1-2-10-4.5-14.1-8.3
						C112.5,252.1,112.2,252,112.5,251.3z"/>
					<path class="st13" d="M317,316.3c0.3,0.1,0.5,0.1,0.6,0.2c2.2,3.5,3.6,7.3,3.8,11.4c0,0.6,0.3,1.6-0.5,1.6
						c-0.7,0.1-0.8-0.9-0.9-1.5c-0.4-2-0.7-4-1.2-6C318.3,320.2,317.7,318.3,317,316.3z"/>
					<path class="st13" d="M331.1,383c3.5-1.3,7-2.6,10.5-3.8c0.4-0.1,0.7-0.2,1,0.1c0.3,0.5-0.1,0.8-0.4,1c-1.2,1-2.6,1.4-4.1,1.8
						c-2.3,0.5-4.5,0.9-6.8,1.4C331.2,383.4,331.1,383.2,331.1,383z"/>
					<path class="st15" d="M343,376.8c-2.2,1.7-4.5,1.9-6.9,2.7C337.8,378.2,341.1,376.9,343,376.8z"/>
					<path class="st5" d="M238.8,337.9c-0.2,1.1-0.7,1.9-1.9,2c-1.2,0-1.9-0.7-2-1.9c0-1.1,0.7-1.9,1.9-2
						C238,336,238.6,336.8,238.8,337.9z"/>
					<path class="st5" d="M243.8,300.4c-1.2-0.2-1.9-0.9-1.8-2c0-1.2,0.8-1.9,1.9-1.9c1.1,0.1,1.9,0.8,1.8,2
						C245.6,299.7,244.9,300.3,243.8,300.4z"/>
					<path class="st5" d="M233.9,385.6c-1.2-0.2-1.9-0.9-1.8-2.1c0.1-1.1,0.8-1.8,1.9-1.8c1.2,0,1.9,0.7,1.9,2
						C235.8,384.9,235.1,385.5,233.9,385.6z"/>
					<path class="st7" d="M273.5,213.2c-0.4,0-1.2,0.2-2.1,0.2c-0.6,0-1.4,0.4-1.7-0.1c-0.4-0.6,0.2-1.4,0.5-2
						c1.5-2.9,7.8-4,10.3-1.9c0.7,0.6,0.2,0.7-0.2,1C278.9,211.5,276.2,212.7,273.5,213.2z"/>
					<path class="st2" d="M265.4,202.7c5.6,1.3,11.1,2.1,16.7,1.2C277.4,207.3,266.8,206.7,265.4,202.7z"/>
					<path class="st16" d="M137.5,251.2c1.1-2.9,2-5.7,3-8.5c2.1,0.7,3.5,1.1,4.4,1.4c-0.8,2.8-1.7,5.8-2.7,9
						c-0.5,1.3-2,1.9-3.3,1.4C137.6,253.9,137,252.5,137.5,251.2L137.5,251.2z M143,236.3c3.8-8.9,8.9-16.6,19.7-21.1
						c4.3-1.8,4.4-1.5,9.1-2.1l-4.3,2c-12.5,6.1-17.1,13-20.4,22.3L143,236.3z"/>
					<path class="st6" d="M257.9,180.3c-0.2,0-0.3-0.1-0.5-0.1c-1.8-0.5-1.5-0.7-2.6-2.9c-0.7,0.5-1.4,1-2.2,1.6
						c0.4-1.6,1.7-2.3,2.7-3.6c-0.6,0.1-1.1,0.2-1.5,0.2c-0.2-0.1-0.2-0.2-0.1-0.3c1.1-0.8,2.4-1,3.7-1.1c1.7-0.1,3.5-0.1,5.2-0.1
						c3.5,0.1,4.6,1,5.8,4.2c0.3,0.9-0.9,2.7-1.8,2.7c-0.2,0-0.5,0-0.6-0.3c-0.1-0.2,0-0.4,0-0.6c-0.3,0-0.9,0.1-1.7,0.1
						c-0.2,0.1-0.4,0.1-0.6,0.2c-1.7,0.4-3.4,0.5-5.2,0.2C258.4,180.6,258,180.5,257.9,180.3L257.9,180.3z M264.3,170.5
						c-1.6,0.1-3.1-0.2-4.6-0.5c-3-0.6-5.7-0.7-8,2.6c0.1-1.1,0.3-2,0.5-2.7c0.8-2.7,2.4-3.5,5.8-3.3c2.7,0.2,5.3,0.7,8,1
						c0.4,0,0.6,0.1,0.7,0.3c0.1,0.2,0.1,0.5,0,0.8C266.3,169.9,265.5,170.4,264.3,170.5L264.3,170.5z M269.7,167.7
						c-1.1-4.4-1.7-9.8-0.7-13.5c-5,0.1-10.1,0.7-15.2,1.7c-1,0.2-1.6,0.7-1.7,1.8c-0.3,1.9-0.8,3.8-1,5.7c-0.3,2.3-0.5,4.6-0.7,6.9
						c-0.5,4.4-1,8.7-1.9,13c-0.7,3.5-1.5,7.1-0.9,10.7c1.5,9.6,3.9,19,7.3,28.1c0.8,2.1,1.5,4.2,3.1,5.8c1.4,1.5,3.3,2.6,5.4,3.5
						c-0.2-1.6-0.2-3.8,0.4-6.7c0.4-2.3,1.4-3.5,2.3-4.2c-0.6-0.5-1.2-1.1-1.6-2c-1.9-1-2.9-2.4-2.9-3.4c0-0.6,0.6-1.2,1.4-1.8
						c0.1-0.3,0.3-0.7,0.7-1.1c0.8-0.8,1.3-1.6,1.4-2.5c0-0.6-0.1-1.3-0.2-2.1c-0.1-0.2-0.1-0.4-0.2-0.6c-0.7-1.5-1.2-3.1-1.8-4.7
						c-0.1-0.3-0.3-0.6-0.4-0.9c-1.7-2.9-0.2-3.6,1-3.6c1.2,0,3.9,1.1,7.4,1.4c2.8,0.2,7.1-3.6,8.7-5.2c0-0.2,0-0.4-0.1-0.6
						c-2.2,0-8.9,0.1-12.4-0.6c-0.3-0.1-0.6-0.1-0.9-0.2c0.1,0.7,0.4,1.3,0.8,2c0.4,0.6,0.7,1.2,0.9,1.9c-1.8-1.3-3.1-2.9-3.8-5.1
						c-1.2,1.5-0.3,2.7,0.6,3.9c-1.6-0.3-2.5-1.8-2-3.4c0.2-0.7,0.6-1.3,1.1-1.8c3.5-3.8,4.7-8.7,6.3-13.3c0.7-2-0.2-4.1-0.5-6.2
						c-0.1-0.5-0.2-0.9-0.1-1.4c0.8,1.1,0.9,2.5,1.5,3.6c-0.1-0.6-0.2-1.3-0.4-1.8C270.3,169.9,270,168.8,269.7,167.7L269.7,167.7z
						 M255.5,206.5c0.3,0.8,0.7,1.6,0.7,2.6c0,0.4-0.1,0.7-0.5,0.8c-0.5,0.1-0.9-0.1-1-0.6c-0.2-0.9-0.3-1.8-0.4-2.5
						c0.1-0.5-0.3-1.2,0.4-1.3C255.3,205.4,255.3,206.1,255.5,206.5L255.5,206.5z M274.2,196.3c0.5-2,1.3-2.2,2.8-0.9
						C276.1,195.7,275.2,196,274.2,196.3L274.2,196.3z M256.7,222.9c1,2.7,3.5,4.1,5.2,6.3C258.9,228.1,256.9,225.7,256.7,222.9z"/>
					<path class="st3" d="M295.6,315.4c5.4-2.4,2.3,2,0.3,2.7c-0.5,0.2-1,0.3-1.4,0.5c-0.2,0.8-0.3,1.8,0,3c0.4,2,1.1,3.1,1.6,3.8
						c0.3-0.1,0.5-0.2,0.8-0.3c5-1.6,4.1,0.9,2,1.7c-0.6,0.2-1.3,0.5-2.1,0.7c-0.4,1.4-0.8,3.8,0.4,5.3c0.8,0.9,1.4,1.5,1.9,1.9
						c1.1-0.3,2.2-0.7,3.3-1c0.4,1.9-0.1,2.4-2.1,2.7c0.3,1.3,1.3,3.6,4.7,4.2c4.9,0.8,16.2-5.7,16.2-5.7l3.6-6.6
						c-1.2-6.1-3.2-11.8-6.5-17.1c-3.1-4.9-5.4-10.3-7.5-15.7c-1-2.5-1.2-5-0.8-7.6c0.2-1.4,0.8-2.8,0.4-4.4c-4,1.2-6.6,3.6-7.3,7.7
						c-0.7,3.7-0.5,7.4,0,11.1c0.1,0.9,0.6,1.1,1.4,1.2c1.9,0.3,3.8,0.9,5.2,2.4c-0.5,0.5-0.8,0.2-1.1,0.1
						c-3.5-0.9-6.9-0.7-10.3,0.3c-1.5,0.5-3.1,0.9-4.6,1.4C292.8,311.2,294.5,314.6,295.6,315.4
						C295.6,315.3,295.6,315.4,295.6,315.4L295.6,315.4z M318.8,322.1c-0.5-1.9-1.1-3.7-1.8-5.8c0.3,0.1,0.5,0.1,0.6,0.2
						c2.2,3.5,3.6,7.3,3.8,11.4c0,0.6,0.3,1.6-0.5,1.6c-0.7,0.1-0.8-0.9-0.9-1.5C319.5,326.1,319.3,324,318.8,322.1z"/>
					<path class="st6" d="M307.8,294.6c-0.9-3.5-0.2-7.1,1.3-10.8c-3.3,1.3-5.4,3.6-6.1,7.2c-0.7,3.7-0.5,7.4,0,11.1
						c0.1,0.9,0.6,1.1,1.4,1.2c1.7,0.3,3.3,0.7,4.6,1.8C308.9,302.4,308.6,297.5,307.8,294.6z"/>
					<path class="st5" d="M315.9,384.9c-2.1-1-10,11-9.9,10.6c1.7-8.4,8-12.9,8.4-21.5c0.3-6.1-2.3-14.9-0.9-25.1
						c-0.1-0.8,0.1-1.8-1.3-1.7c-2.2,0.1-4.4,0.8-6.6,0.7c-0.4,0-0.5,0.3-0.6,0.6c-0.9,1.9-2.6,2.2-4.4,1.9
						c-1.8-0.3-3.7-0.6-5.5-1.1c-1.9-0.5-3.4-1.1-4.4-1.7c0.6,4.2,3.4,5.7,8.3,7.1c7.6,2.2,7.6,3.5,7.6,3.5l-0.8,23.5l-13.5,23.5
						l-0.4,1.5l-0.1,0.6c3-0.2,29.6-3.9,30.1-5.9C321.9,400.8,318.2,386,315.9,384.9z"/>
					<path class="st5" d="M379.9,347.9c-8.1,3.4-18.6,4.1-29.5,4c0.5,4.1,0.8,8.2,0.5,12.2c-0.1,1.5,0.5,2,1.8,2.2
						c2.6,0.5,3,0.3,5.5-0.3c4.8-1.2,9.2-3.1,13.2-5.6c4.2-2.6,8-5.8,11.5-9.5c2.5-2.7,4.5-5.7,5.6-9
						C386.1,344.6,383.2,346.5,379.9,347.9z"/>
					<path class="st5" d="M327.8,282.5c-1.1,4-0.9,8-0.8,12.1c0.3-0.9,0.4-1.8,0.6-2.7c1.3-5.6,3.4-10.8,6.3-15.7L327.8,282.5z"/>
					<path class="st5" d="M325.5,289.3c0.7-1.7,0.7-3.4,0.9-5.1c0-0.1,0-0.2,0-0.3l-1.4,1.4C325.2,286.6,325.4,287.9,325.5,289.3z"
						/>
					<path class="st5" d="M323.6,299.3c-0.2-4.2-0.1-8.5,0.4-12.7c-1,1.7-4.3,7.5-7.9,13.2c1.1,2.1,2.1,4,3.3,6.4
						c0.5,0.9,0.9,1.8,1.7,2.5C323.5,305.3,323.8,303.3,323.6,299.3z"/>
					<path class="st5" d="M344,149.8c-1.3,0.1-2.8,0.1-4.6-0.4c2.4-1.1,4.5-1.5,6.7-1.5c0.7,0,1.2,0,1.6-0.8
						c5.3-9.7,4.9-20.7-3.7-28.2c-2.1-1.9-4.3-3.3-6.7-4.2c5.8,17.1,3.8,28.3-1.6,30.5c-1.9,0.8-3.8,1.3-5.4,1.6
						c0.3,1.2,0.7,2.4,1.1,3.5c1.8,5.2,3.7,10.3,7.5,14.4c2.5,2.8,5.5,4.1,9.3,2.2c1.1,6.7-0.8,11.8-7.1,14.9c0.7,0,1.3,0,1.9-0.2
						c10.7-3,15.9-18.5,9.1-27.3C350.2,151.5,347.7,149.6,344,149.8L344,149.8z M347.2,143.2c-0.2,0.5-0.4,1.4-1.1,1.2
						c-0.8-0.2-0.6-1.1-0.4-1.7c0.7-3.1,1.6-6.1,1.8-9.3c0.1-2.5,0-5-1-7.4c2.5,2.8,2.6,6.2,2.3,9.6
						C348.5,138.2,348.1,140.8,347.2,143.2z"/>
					<path class="st5" d="M316.4,146.8c3.6,3.4,4.5,5.9,2.9,10.2c-1.5,3.8-4.1,7.5-5.9,9.8c0.6,0.5,1.1,1,1.7,1.5
						c2.9,2.6,5.4,5.5,8,8.3c-1.9-4.1-4.9-7.3-7.8-10.6c2.3,1.2,4.3,2.7,5.8,4.7c1.5,2,2.9,4.1,4.5,6.3c1.9-4.2,3.7-8.3,5.5-12.3
						c0.3-0.7,0.1-1.2-0.3-1.8C326.7,156.5,321.8,151.2,316.4,146.8L316.4,146.8z M323,172c-0.2-2.2,3.6-6.5,6.7-7.5
						C328.8,165.8,323.6,171.6,323,172z"/>
					<path class="st2" d="M206.5,238.7c0-8.4-1.6-16.1-14.7-28.9c-2.2-0.3-4.4-0.5-6.6-0.6c-4-0.2-8.1-0.1-12.2,0.4
						c-7.6,0.9-15.1,2.3-22,5.6c-3.4,1.6-6.3,3.6-8.2,7c-2.5,4.4-3.7,7.3-5.8,11.9c-0.4,1-0.4,1.4,0.7,1.8c11,4,18.9,6.5,26.6,8.1
						c10,2,19.6,2.5,35.6,2.8c1.9,0,3.7,0,5.6-0.1C206,245.3,206.5,243,206.5,238.7L206.5,238.7z M167.4,215.2
						c-12.5,6.1-17.1,13-20.4,22.3l-4-1.2c3.8-8.9,8.9-16.6,19.7-21.1c4.3-1.8,4.4-1.5,9.1-2.1L167.4,215.2z"/>
					<path class="st2" d="M184.8,248.2c-7.2-0.4-14.4-1-21.6-2c-9.5-1.4-18.8-3.6-27.9-7.1c-0.9-0.3-1.2,0-1.4,0.7
						c-1,2.6-2,5.3-2.9,7.9c-1.1,3.2-1,3.6,2,5.5c0.6,0.4,1.1,0.7,1.7,1c4.1,2.1,8.6,3.3,13.1,4.3c3.7,0.8,7.5,1.5,11.2,2.1
						c14.6,2.4,29.3,3.3,44,3.3c0,0,0.1,0,0.1,0c0.2-1.1,0.4-3,0.9-6c0.6-4.3,0.2-7.8-0.1-9.2C197.6,248.7,191.2,248.5,184.8,248.2
						L184.8,248.2z M144.9,244.1c-0.8,2.8-1.7,5.8-2.7,9c-0.5,1.3-2,1.9-3.3,1.4c-1.3-0.5-1.9-2-1.4-3.3c1.1-2.9,2-5.7,3-8.5
						C142.6,243.3,144,243.8,144.9,244.1z"/>
					<path class="st2" d="M113.2,244.2c0.6,7.2,13.2,14.9,45,20.5c1.6,0.3,3.2,0.5,4.8,0.8c40.6,6.4,81.2,3,92.7-9.2
						c-0.2-0.2-0.5-0.5-0.7-0.7c-4.8-3.9-10.5-5.5-16.5-7.7c0.7,3.3,1.2,6.2,2,9.1c0.6,2-0.1,3.4-1.7,4.5c-1.8,1.3-3.9,2-6.1,2.5
						c-8.3,2-16.9,2.4-25.4,2.5c-16.1,0.2-32.1-0.8-48.1-3.3c-0.2,0-0.5-0.1-0.7-0.1c-7.4-1.2-15.8-3-22.7-5.6
						c-2.7-1-5.3-2.2-7.4-4.3c-1.3-1.3-1.8-2.7-1-4.6c1.2-3.1,2.3-6.2,3.4-9.5c-5.1,0.8-8.9,1.8-13.7,3.5
						C115.7,243,114.4,243.6,113.2,244.2z"/>
					<path class="st5" d="M230.1,285.7c0.7-1.6,1.4-3.2,2.1-4.8c1.2-2.9,2.8-5.6,4.7-8.4c-7.6,1.4-15,1.8-22.2,2.3
						c1.3,13.3,3.4,26.5,0.2,39.7c2.5-3.9,4.1-8.2,6.5-12.4c0.4,0.9,0.2,1.4,0,1.9c-0.9,4.4-2.8,8.4-5,12.3
						c-0.3,0.6-0.6,1.1-0.8,1.8c-1.1,5.5-2.1,11-3.3,16.4c-1.4,6.6-1,13.1,1.1,19.5c1.4,4.4,2.6,8.7,2.5,13.4
						c-0.1,3.4-1.1,6.4-2.9,9.2c0.9-3.2,1.6-6.4,1.2-9.7c-0.3-3.3-0.9-6.4-2.3-9.9c-1.3,8.5-5,23.8-8.5,31.1
						c2.7-0.3,4.2-0.2,7.8-0.6c3.9-15.2,6.1-29,5.6-32.7c-0.4-3.7,0-0.3-0.1-0.5c-0.1,0.1-0.1,0.1-0.3,0.2c-0.6,0.2-0.8-0.4-1-0.8
						c-1.5-2.5-1.5-5.3-1.5-8.2c0-1.3,0-2.5,0-3.8c0-0.3,0-0.6,0.4-0.7c0.4,0,0.5,0.3,0.5,0.6c0.2,3.3,0.9,6.5,1.5,9.7
						c-1.2-9.8-2.8-25.3,2-32c5.4-7.6,6.2-25.2,6.2-25.2s1.1,0.5,8.1,0.5c0.1-0.9,0.2-1.7,0.4-2.6c0.2-1.1-0.1-1.5-1.2-1.5
						c-1.1,0-2.3-0.2-3.4-0.4c-0.5-0.1-1.1-0.2-1.2-0.9c-0.1-0.6,0.1-1.1,0.7-1.3C229.2,287.7,229.6,286.7,230.1,285.7z"/>
					<path class="st5" d="M265.1,274.9c-3.4,4.8-7.2,9.1-12.3,12.2c-4.9,3-10.3,3.8-15.9,3.7c-0.9,0-1.6-0.1-1.7,1.2
						c-0.1,0.8-0.2,1.7-0.3,2.5c1.7,0,3.7-0.1,6-0.2c14.3-0.5,25.2-14.3,25.2-14.3s0,0,5.1,6.8c5,6.6,16.3,9,28.1,13.6
						c0-0.6-0.1-1.4-0.3-2.3c-0.1-0.7-0.3-1.2-1.1-1.4c-5.3-1.9-8.8-4.3-14.2-5.9c-3.3-1-6.1-2.8-8.5-5.2c-3.6-3.6-6.4-7.9-8.9-12.5
						C265.8,273.9,265.5,274.4,265.1,274.9z"/>
					<path class="st5" d="M238.6,245.3c2.7,1,5.4,1.9,7.7,2.8c-1.2-1.3-2.6-2.8-4-4.3c-1.1-1.1-2.4-2-3.7-2.8
						c-0.6-0.3-1.3-0.6-1.7,0.1C236.5,241.7,238,245.1,238.6,245.3z"/>
					<path class="st6" d="M287.1,246.7c5.7-8.8,10-19.5,13.3-29.2c-6.2,9.2-13.4,17.6-22.1,24.7c-1.8,1.5-3.8,1.9-6.1,1.5
						c-3.2-0.6-6-1.9-8.7-3.8c-0.4-0.3-0.7-0.8-1.3-0.7c-0.1,4.6,2.6,8.2,4.5,12c0.5,1.1,1.9,1.2,3,1.2c1.1,0.1,0.8-1.2,1.2-1.8
						c0.6-0.9,0.6-2.1,1.7-2.8c0.4,1.7-0.3,3.1-0.5,4.7c3.6-0.2,6.9-0.6,9.9-2.7C283.6,248.7,285.4,247.7,287.1,246.7z"/>
					<path class="st6" d="M297.2,161.7c4.2,2.5,7.8,6.5,10.4,9.9c0.4,0.5,0.7,1,1,1.4c0.1-0.4,0.1-0.7,0.2-1.1
						c0.2-1.3,0.4-2.6,0.7-3.9c0.2-1.1,0.1-1.7-0.9-2.3c-3.3-2.3-6.7-4.4-10.4-6.1c-9.5-4.3-19.3-5.8-29.2-5.5
						c-0.1,0.3-0.1,0.5-0.2,0.8C279.5,154.2,289.8,157.4,297.2,161.7z"/>
					<path class="st6" d="M321.8,196.2c0.7,1.1,0.4,2.2-0.6,3.2c-0.2-1.1,0.1-2.3-1-2.8c-0.6-0.3-1.3-0.2-1.9,0
						c-0.9,0.4-1.3,0.7-0.5,1.7c1.4,1.7,1,3.6-0.6,4.5c1.6-0.1,3.4-1,4.8-2c-0.1-0.4,0.1-0.8,0.4-1.1c0.7-1.1,1.4-2.2,1.8-3.5
						c0.3-0.9,0.4-1.9,0.2-2.8c-0.4-2.2-2.2-3.1-4.1-1.9c-1.3,0.8-2.1,1.9-2.9,3.5C319.2,194.5,320.7,194.6,321.8,196.2z"/>
				</g>
				<path class="st5" d="M347,350c-1.9,1.4-8.2,2.3-16.6,2.1c0.7,11.3,0,22.8-2.4,34.3c4.9-1.2,9.5-2.2,14.1-3.3
					c0.7-0.2,1.1-0.6,1.3-1.3c0.9-2.4,1.7-4.7,2.1-7.2C346.7,366.5,347,358.3,347,350L347,350z M336.2,379.5
					c1.6-1.3,4.9-2.7,6.9-2.7C340.8,378.5,338.5,378.8,336.2,379.5L336.2,379.5z M331.1,383c3.5-1.3,7-2.6,10.5-3.8
					c0.4-0.1,0.7-0.2,1,0.1c0.3,0.5-0.1,0.8-0.4,1c-1.2,1-2.6,1.4-4.1,1.8c-2.3,0.5-4.5,0.9-6.8,1.4
					C331.2,383.4,331.1,383.2,331.1,383z"/>
			</g>
			<g>
				<path class="st17" d="M263.4,269.1c-11.6,3.3-20.2,11.2-29.7,18.1c1.3,0.3,2.2-0.1,3.2-0.2c6.3-1,12.5-2.3,17-7.5
					c1.2-1.4,2.6-2.5,3.8-3.8C259.7,273.5,261.8,271.6,263.4,269.1z"/>
				<path class="st17" d="M271,271.6c2.1,5.7,5.8,9.9,11.3,12.3c3.9,1.7,8,3.1,11.8,5.3c-2.3-2.9-4.5-5.8-6.9-8.6
					c-4.1-4.7-8.6-9.1-14.4-11.7c-0.5-0.2-1.1-0.8-1.6-0.3c-0.5,0.5-0.7,1.3-0.6,2C270.7,270.9,270.8,271.2,271,271.6z"/>
				<path class="st16" d="M132,256.2c-2.9-2-10.5-6.1-9.9-10.5c5,4.5,4.7,4.5,11.3,7.9c0.8,0.6,1.7,1.4,1.1,2.2
					C133.9,256.5,132.8,256.8,132,256.2z"/>
			</g>
		</g>
		<path class="st16" d="M240.2,301.9c5.6-1.7,5.2-1.3,9.4-4.4l-0.3,1.4C247.5,303,243.5,302.5,240.2,301.9z"/>
		<path class="st16" d="M233.1,341.9c5.6-1.7,5.2-1.3,9.4-4.4l-0.3,1.4C240.4,343,236.5,342.5,233.1,341.9z"/>
		<path class="st16" d="M230.4,387.6c5.6-1.7,5.2-1.3,9.4-4.4l-0.3,1.4C237.7,388.7,233.8,388.2,230.4,387.6z"/>
	</g>
</g>
</svg>
